<svg width="38" height="38" viewBox="0 0 38 38" fill="none" xmlns="http://www.w3.org/2000/svg">
<mask id="mask0_120_143" style="mask-type:luminance" maskUnits="userSpaceOnUse" x="0" y="0" width="38" height="38">
<path d="M37.5667 0H0V37.5667H37.5667V0Z" fill="white"/>
</mask>
<g mask="url(#mask0_120_143)">
<path d="M32.0316 8.72681L20.5345 3.23199C19.315 2.64299 17.8771 2.72269 16.7298 3.44369L4.86614 10.9145C3.71883 11.6355 3.02417 12.8994 3.03007 14.2537L3.07377 26.9585C3.07979 28.4603 3.94105 29.8287 5.29337 30.4839L16.7905 35.9788C18.01 36.5678 19.4478 36.4881 20.5952 35.7671L32.4589 28.2962C33.6062 27.5752 34.3008 26.3114 34.2949 24.9571L34.2727 18.1266L34.2537 12.2522C34.2477 10.7505 33.3864 9.38208 32.0365 8.72927L32.0316 8.72681Z" fill="black" stroke="black" stroke-miterlimit="10"/>
<path d="M15.812 31.512L7.61435 27.5927C6.77625 27.1867 6.23048 26.3202 6.22757 25.3863L6.19629 16.213" fill="white"/>
<path d="M15.812 31.512L7.61435 27.5927C6.77625 27.1867 6.23048 26.3202 6.22757 25.3863L6.19629 16.213" fill="white"/>
<path d="M15.812 31.512L7.61435 27.5927C6.77625 27.1867 6.23048 26.3202 6.22757 25.3863L6.19629 16.213" stroke="black" stroke-width="0.8" stroke-miterlimit="10"/>
<path d="M9.3457 15.6055L16.3969 19.0163C17.2306 19.429 17.7719 20.2932 17.7748 21.2249L17.803 29.3035" fill="white"/>
<path d="M9.5 16.2568L7 18.2568L13.5 28.7568L17 27.2568L13.5 19.7568L9.5 16.2568Z" fill="white" stroke="white"/>
<path d="M9.3457 15.6055L16.3969 19.0163C17.2306 19.429 17.7719 20.2932 17.7748 21.2249L17.803 29.3035" fill="white"/>
<path d="M9.3457 15.6055L16.3969 19.0163C17.2306 19.429 17.7719 20.2932 17.7748 21.2249L17.803 29.3035" stroke="black" stroke-width="0.8" stroke-miterlimit="10"/>
<path d="M6.2147 20.0046L6.2002 15.447C6.1999 15.0381 6.48347 14.8145 6.60629 14.7362C6.72912 14.6602 7.05518 14.4991 7.42395 14.6775L9.75942 15.8063" fill="white"/>
<path d="M6.2147 20.0046L6.2002 15.447C6.1999 15.0381 6.48347 14.8145 6.60629 14.7362C6.72912 14.6602 7.05518 14.4991 7.42395 14.6775L9.75942 15.8063" fill="white"/>
<path d="M6.2147 20.0046L6.2002 15.447C6.1999 15.0381 6.48347 14.8145 6.60629 14.7362C6.72912 14.6602 7.05518 14.4991 7.42395 14.6775L9.75942 15.8063" stroke="black" stroke-width="0.8" stroke-miterlimit="10"/>
<path d="M17.7918 26.1914L17.8089 31.1847C17.8091 31.5913 17.5434 31.8038 17.4296 31.8753C17.3157 31.9469 17.0097 32.0968 16.6432 31.9184L11.4805 29.4556" fill="white"/>
<path d="M17.7918 26.1914L17.8089 31.1847C17.8091 31.5913 17.5434 31.8038 17.4296 31.8753C17.3157 31.9469 17.0097 32.0968 16.6432 31.9184L11.4805 29.4556" fill="white"/>
<path d="M17.7918 26.1914L17.8089 31.1847C17.8091 31.5913 17.5434 31.8038 17.4296 31.8753C17.3157 31.9469 17.0097 32.0968 16.6432 31.9184L11.4805 29.4556" stroke="black" stroke-width="0.8" stroke-miterlimit="10"/>
</g>
</svg>
