<svg width="60" height="60" viewBox="0 0 60 60" fill="none" xmlns="http://www.w3.org/2000/svg">
<circle cx="30" cy="30" r="30" fill="#DDFBD8"/>
<mask id="mask0_114_191" style="mask-type:luminance" maskUnits="userSpaceOnUse" x="11" y="12" width="38" height="38">
<path d="M48.5667 12H11V49.5667H48.5667V12Z" fill="white"/>
</mask>
<g mask="url(#mask0_114_191)">
<path d="M43.0316 20.7268L31.5345 15.232C30.315 14.643 28.8771 14.7227 27.7298 15.4437L15.8661 22.9145C14.7188 23.6355 14.0242 24.8994 14.0301 26.2537L14.0738 38.9585C14.0798 40.4603 14.941 41.8287 16.2934 42.4839L27.7905 47.9788C29.01 48.5678 30.4478 48.4881 31.5952 47.7671L43.4589 40.2962C44.6062 39.5752 45.3008 38.3114 45.2949 36.9571L45.2727 30.1266L45.2537 24.2522C45.2477 22.7505 44.3864 21.3821 43.0365 20.7293L43.0316 20.7268Z" fill="#124111" stroke="#124111" stroke-miterlimit="10"/>
<path d="M26.812 43.512L18.6143 39.5927C17.7762 39.1867 17.2305 38.3202 17.2276 37.3863L17.1963 28.213" fill="#DDFBD8"/>
<path d="M26.812 43.512L18.6143 39.5927C17.7762 39.1867 17.2305 38.3202 17.2276 37.3863L17.1963 28.213" fill="#DDFBD8"/>
<path d="M26.812 43.512L18.6143 39.5927C17.7762 39.1867 17.2305 38.3202 17.2276 37.3863L17.1963 28.213" stroke="#124111" stroke-width="0.8" stroke-miterlimit="10"/>
<path d="M20.3457 27.6055L27.3969 31.0163C28.2306 31.429 28.7719 32.2932 28.7748 33.2249L28.803 41.3035" fill="#DDFBD8"/>
<path d="M20.5 28.2568L18 30.2568L24.5 40.7568L28 39.2568L24.5 31.7568L20.5 28.2568Z" fill="#DDFBD8" stroke="#DDFBD8"/>
<path d="M20.3457 27.6055L27.3969 31.0163C28.2306 31.429 28.7719 32.2932 28.7748 33.2249L28.803 41.3035" fill="#DDFBD8"/>
<path d="M20.3457 27.6055L27.3969 31.0163C28.2306 31.429 28.7719 32.2932 28.7748 33.2249L28.803 41.3035" stroke="#124111" stroke-width="0.8" stroke-miterlimit="10"/>
<path d="M17.2147 32.0046L17.2002 27.447C17.1999 27.0381 17.4835 26.8145 17.6063 26.7362C17.7291 26.6602 18.0552 26.4991 18.4239 26.6775L20.7594 27.8063" fill="#DDFBD8"/>
<path d="M17.2147 32.0046L17.2002 27.447C17.1999 27.0381 17.4835 26.8145 17.6063 26.7362C17.7291 26.6602 18.0552 26.4991 18.4239 26.6775L20.7594 27.8063" fill="#DDFBD8"/>
<path d="M17.2147 32.0046L17.2002 27.447C17.1999 27.0381 17.4835 26.8145 17.6063 26.7362C17.7291 26.6602 18.0552 26.4991 18.4239 26.6775L20.7594 27.8063" stroke="#124111" stroke-width="0.8" stroke-miterlimit="10"/>
<path d="M28.7918 38.1914L28.8089 43.1847C28.8091 43.5913 28.5434 43.8038 28.4296 43.8753C28.3157 43.9469 28.0097 44.0968 27.6432 43.9184L22.4805 41.4556" fill="#DDFBD8"/>
<path d="M28.7918 38.1914L28.8089 43.1847C28.8091 43.5913 28.5434 43.8038 28.4296 43.8753C28.3157 43.9469 28.0097 44.0968 27.6432 43.9184L22.4805 41.4556" fill="#DDFBD8"/>
<path d="M28.7918 38.1914L28.8089 43.1847C28.8091 43.5913 28.5434 43.8038 28.4296 43.8753C28.3157 43.9469 28.0097 44.0968 27.6432 43.9184L22.4805 41.4556" stroke="#124111" stroke-width="0.8" stroke-miterlimit="10"/>
</g>
<path d="M15.5 15.9735L19.5001 20.9736L24.5001 18.4736C24.5001 18.4736 23.5001 16.4735 22.5001 15.4735L21.0001 13.9735C20.5001 13.4735 18.5001 12.9734 17 13.4735C15.4999 13.9736 15.1666 15.1401 15.5 15.9735Z" fill="#124111" stroke="#124111"/>
<path d="M45 15.6806L40.9999 20.6807L35.9999 18.1807C35.9999 18.1807 36.9999 16.1807 37.9999 15.1807L39.4999 13.6807C39.9999 13.1807 41.9999 12.6806 43.5 13.1807C45.0001 13.6807 45.3334 14.8473 45 15.6806Z" fill="#124111" stroke="#124111"/>
</svg>
